<svg width="40" height="26" viewBox="0 0 40 26" fill="none" xmlns="http://www.w3.org/2000/svg">
<path fill-rule="evenodd" clip-rule="evenodd" d="M1.66667 0.5H38.3333C39.2533 0.5 40 1.24667 40 2.16667V23.8333C40 24.7533 39.2533 25.5 38.3333 25.5H1.66667C0.746667 25.5 0 24.7533 0 23.8333V2.16667C0 1.24667 0.746667 0.5 1.66667 0.5Z" fill="#306FC5"/>
<path fill-rule="evenodd" clip-rule="evenodd" d="M24.9837 11.0098V11.9907H28.3746V13.0848H24.9837V14.1557H28.7871L30.5546 12.5782L28.8621 11.009H24.9837V11.0098ZM9.31957 10.8065L8.25874 12.9532H10.3796L9.31957 10.8065ZM23.4479 9.89733H29.6646L31.5654 11.6565L33.5287 9.89733H35.4296L32.5404 12.5982L35.4296 15.269H33.4421L31.5404 13.4882L29.5687 15.269H23.4479V9.89733ZM8.19791 9.89733H10.5037L13.1237 14.9757V9.89733H15.6487L17.6721 13.539L19.5371 9.89733H22.0496V15.2723H20.5212L20.5079 11.0607L18.2796 15.2723H16.9121L14.6712 11.0607V15.2723H11.5262L10.9296 14.0665H7.70874L7.11374 15.2707H5.42874L8.19791 9.89733ZM7.28374 8.83316L3.33374 16.3232H8.06207L8.64791 15.1298H9.98791L10.5746 16.3232H15.7796V15.4123L16.2437 16.3232H18.9362L19.3996 15.3923V16.3232H30.2246L31.5404 15.1607L32.7737 16.3232L38.3337 16.3332L34.3712 12.5998L38.3337 8.83316H32.8596L31.5779 9.97483L30.3846 8.83316H18.6087L17.5971 10.7665L16.5621 8.83316H11.8429V9.71399L11.3187 8.83316H7.28374Z" fill="white"/>
</svg>
