<svg width="40" height="40" viewBox="0 0 40 40" fill="none" xmlns="http://www.w3.org/2000/svg">
<mask id="mask0_2453_1201" style="mask-type:alpha" maskUnits="userSpaceOnUse" x="0" y="0" width="40" height="40">
<path d="M35 0H5C2.23858 0 0 2.23858 0 5V35C0 37.7614 2.23858 40 5 40H35C37.7614 40 40 37.7614 40 35V5C40 2.23858 37.7614 0 35 0Z" fill="white"/>
</mask>
<g mask="url(#mask0_2453_1201)">
<path d="M35 0H5C2.23858 0 0 2.23858 0 5V35C0 37.7614 2.23858 40 5 40H35C37.7614 40 40 37.7614 40 35V5C40 2.23858 37.7614 0 35 0Z" fill="#F7F7F7"/>
<path d="M4.20855 10.2589C4.20783 10.1892 4.2314 10.1214 4.27521 10.0672C4.32424 10.0202 4.39078 9.99601 4.45855 10.0005H8.08355C8.56952 9.99809 9.04524 10.1402 9.45021 10.4089C9.6512 10.5261 9.83608 10.669 10.0002 10.8339C10.1531 11.0063 10.2846 11.1966 10.3919 11.4005C10.4995 11.6071 10.5834 11.8251 10.6419 12.0505C10.6988 12.2738 10.7268 12.5035 10.7253 12.7339C10.7253 13.4298 10.4669 14.1009 10.0002 14.6172C9.76649 14.8764 9.48312 15.0861 9.16688 15.2339C8.84074 15.3958 8.48101 15.4786 8.11688 15.4755H6.40021V18.1755C6.40021 18.3339 6.31688 18.4173 6.14188 18.4173H4.47521C4.39976 18.419 4.32708 18.3887 4.27521 18.3339C4.22822 18.2848 4.20402 18.2183 4.20855 18.1505V10.2589ZM8.47521 12.7589C8.47547 12.6425 8.45574 12.5269 8.41688 12.4172C8.3782 12.307 8.3188 12.2051 8.24188 12.1172C8.16559 12.0274 8.07208 11.9537 7.96688 11.9005C7.85686 11.8417 7.73324 11.8129 7.60855 11.8172H6.40021V13.6922H7.60855C7.73579 13.6953 7.8618 13.6667 7.97521 13.6089C8.18545 13.5025 8.34446 13.3164 8.41688 13.0922C8.45775 12.9801 8.47753 12.8615 8.47521 12.7422V12.7589Z" fill="#941C80"/>
<path d="M13.1503 10.2255C13.1439 10.2009 13.1439 10.1751 13.1503 10.1505L13.2253 10.0755L13.3336 10.0005H13.4336H14.8836C14.9421 9.99779 14.9992 10.0188 15.0419 10.0589C15.0821 10.0906 15.1185 10.127 15.1503 10.1672L15.2919 10.4839L18.3336 18.1672C18.3682 18.2234 18.3682 18.2943 18.3336 18.3505C18.2725 18.3995 18.195 18.4233 18.1169 18.4172H16.4503C16.3799 18.4233 16.3095 18.4057 16.2503 18.3672C16.1926 18.3312 16.1509 18.2746 16.1336 18.2089C16.0586 18.0172 15.9836 17.8255 15.9169 17.6339L15.7003 17.0589H12.6753C12.6003 17.2505 12.5253 17.4422 12.4586 17.6339L12.2336 18.2089C12.2017 18.3375 12.0826 18.4251 11.9503 18.4172H10.2836C10.213 18.4186 10.1456 18.3879 10.1003 18.3339C10.0503 18.3339 10.0419 18.2422 10.1003 18.1672L13.1503 10.2255ZM14.1669 12.6505C14.0919 12.8422 14.0169 13.0505 13.9419 13.2672C13.8669 13.4839 13.8003 13.7172 13.7253 13.9422C13.6503 14.1672 13.5836 14.4005 13.5086 14.6172C13.4336 14.8339 13.3669 15.0422 13.2919 15.2422H15.0336L14.1669 12.6505Z" fill="#941C80"/>
<path d="M20.8336 13.1089L22.1753 10.1755L22.2336 10.0755H22.2753H22.3253H22.3836H24.5669C24.5884 10.0672 24.6122 10.0672 24.6336 10.0755C24.6415 10.0942 24.6415 10.1152 24.6336 10.1339C24.6274 10.1909 24.5971 10.2424 24.5503 10.2755L21.8919 15.0005V18.1672C21.9029 18.2392 21.8795 18.3122 21.8288 18.3645C21.7781 18.4169 21.7059 18.4425 21.6336 18.4339H19.9669C19.902 18.4361 19.8389 18.412 19.7919 18.3672C19.7492 18.3096 19.7285 18.2387 19.7336 18.1672V15.0005L17.0169 10.2255C16.9733 10.1908 16.9461 10.1395 16.9419 10.0839C16.9341 10.0652 16.9341 10.0442 16.9419 10.0255C16.9604 10.0166 16.9819 10.0166 17.0003 10.0255H19.1836H19.2503H19.2919H19.3336L19.4003 10.1255L20.8336 13.1089Z" fill="#941C80"/>
<path d="M4.16699 19.8255C4.16424 19.762 4.18501 19.6997 4.22532 19.6505C4.27484 19.5982 4.34512 19.5707 4.41699 19.5755H6.26699C6.32196 19.5641 6.37869 19.5641 6.43366 19.5755C6.49461 19.6059 6.54639 19.6519 6.58366 19.7089C7.05866 20.4839 7.54199 21.2505 8.00866 22.0005C8.47532 22.7505 8.95866 23.5172 9.44199 24.2922V19.7922C9.45718 19.7319 9.48893 19.6771 9.53366 19.6339C9.57731 19.5954 9.63378 19.5745 9.69199 19.5755H11.3087C11.3812 19.5728 11.4523 19.5965 11.5087 19.6422C11.5596 19.6891 11.5871 19.7563 11.5837 19.8255V27.7755C11.592 27.8389 11.5668 27.9021 11.517 27.9422C11.4629 27.9783 11.3986 27.9958 11.3337 27.9922H9.52532C9.47639 27.9917 9.42918 27.974 9.39199 27.9422C9.3493 27.9012 9.31026 27.8566 9.27532 27.8089L7.78366 25.3089L6.28366 22.8089V27.6755C6.28853 27.7432 6.27095 27.8105 6.23366 27.8672C6.17466 27.9134 6.09975 27.9344 6.02532 27.9255H4.41699C4.34614 27.935 4.275 27.9103 4.22532 27.8589C4.19744 27.828 4.17743 27.7908 4.16699 27.7505V19.8255Z" fill="#941C80"/>
<path d="M26.9836 27.8755L26.8752 27.6755C26.8413 27.6105 26.8107 27.5437 26.7836 27.4755C26.3002 26.1922 25.8169 24.9172 25.3336 23.6505C24.8502 22.3839 24.3641 21.1117 23.8752 19.8339C23.8752 19.8339 23.8752 19.8339 23.8752 19.7839C23.8713 19.7674 23.8713 19.7503 23.8752 19.7339C23.8752 19.6339 23.9419 19.5755 24.0836 19.5755H25.9086C26.0444 19.571 26.1654 19.6609 26.2002 19.7922L27.9169 25.0005L29.5252 19.8339C29.5668 19.6999 29.6935 19.6109 29.8336 19.6172H31.6669C31.7322 19.6091 31.7981 19.6271 31.8502 19.6672C31.8888 19.6969 31.9106 19.7435 31.9086 19.7922C31.9139 19.8141 31.9139 19.837 31.9086 19.8589L30.9002 22.7505L31.6669 24.9505L33.5086 19.7922C33.5501 19.6583 33.6768 19.5692 33.8169 19.5755H35.6002C35.668 19.5693 35.7358 19.587 35.7919 19.6255C35.8254 19.6583 35.8436 19.7037 35.8419 19.7505C35.8472 19.7724 35.8472 19.7953 35.8419 19.8172C35.5836 20.4839 35.3252 21.1422 35.0586 21.8089C34.7919 22.4755 34.5169 23.1255 34.2252 23.7922C33.9336 24.4589 33.6836 25.1172 33.3919 25.7755C33.1002 26.4339 32.8669 27.1005 32.6169 27.7672C32.5921 27.8198 32.555 27.8655 32.5086 27.9005C32.4573 27.9502 32.3883 27.9772 32.3169 27.9755H30.9669C30.9005 27.9785 30.8344 27.9641 30.7752 27.9339C30.7312 27.9004 30.6991 27.8537 30.6836 27.8005L29.7836 25.4422C29.6586 25.7922 29.5336 26.1255 29.4086 26.4589C29.2836 26.7922 29.1586 27.1255 29.0336 27.4672L28.9669 27.6339C28.9414 27.692 28.9107 27.7478 28.8752 27.8005C28.8454 27.8498 28.8057 27.8924 28.7586 27.9255C28.7159 27.9592 28.6629 27.9768 28.6086 27.9755H27.2252C27.1002 27.9922 27.0252 27.9589 26.9836 27.8755Z" fill="#941C80"/>
<path d="M22.9253 19.9172C22.6778 19.5931 22.3986 19.2944 22.0919 19.0255C22.0252 18.9667 21.9393 18.9341 21.8503 18.9339C21.7326 18.9343 21.623 18.9938 21.5586 19.0922L18.2253 23.6422L16.5586 21.6172C16.4974 21.5356 16.4023 21.4864 16.3003 21.4839C16.1909 21.4831 16.0882 21.5361 16.0253 21.6255L15.3169 22.6005C15.2043 22.7574 15.2043 22.9687 15.3169 23.1255L18.0169 26.4589C18.079 26.5384 18.1744 26.5845 18.2753 26.5839C18.3846 26.5846 18.4874 26.5317 18.5503 26.4422L22.0336 21.6672C22.9571 23.5036 22.4547 25.7367 20.8336 27.0005C20.0826 27.5971 19.151 27.9203 18.1919 27.9172C16.4304 27.9395 14.8321 26.889 14.1537 25.2632C13.4753 23.6374 13.8529 21.7624 15.1078 20.526C16.3627 19.2896 18.243 18.9398 19.8586 19.6422C20.0407 19.7125 20.2474 19.6549 20.3669 19.5005L20.9253 18.7339C20.9882 18.6507 21.0097 18.5432 20.9836 18.4422C20.9661 18.3478 20.9122 18.264 20.8336 18.2089C20.0108 17.8078 19.1073 17.5997 18.1919 17.6005C16.8552 17.596 15.5565 18.0455 14.5086 18.8755C12.483 20.4477 11.6822 23.1345 12.5168 25.559C13.3513 27.9835 15.6362 29.6083 18.2003 29.6006C20.4898 29.5962 22.5772 28.2893 23.5812 26.2317C24.5852 24.1741 24.3308 21.7245 22.9253 19.9172Z" fill="url(#paint0_linear_2453_1201)"/>
</g>
<defs>
<linearGradient id="paint0_linear_2453_1201" x1="24.174" y1="17.6588" x2="13.7917" y2="27.9827" gradientUnits="userSpaceOnUse">
<stop stop-color="#E83662"/>
<stop offset="1" stop-color="#9B1D82"/>
</linearGradient>
</defs>
</svg>
