<svg width="40" height="26" viewBox="0 0 40 26" fill="none" xmlns="http://www.w3.org/2000/svg">
<path d="M38.3333 0.5H1.66667C0.746192 0.5 0 1.24619 0 2.16667V23.8333C0 24.7538 0.746192 25.5 1.66667 25.5H38.3333C39.2538 25.5 40 24.7538 40 23.8333V2.16667C40 1.24619 39.2538 0.5 38.3333 0.5Z" fill="white" stroke="#E1E1E1"/>
<path fill-rule="evenodd" clip-rule="evenodd" d="M10.6098 17.0958H9.99102C9.76341 17.0958 9.5957 16.9162 9.5957 16.6654V10.1051C9.5957 9.886 9.73086 9.66666 9.99102 9.66666H11.2732C11.4211 9.66666 11.5236 9.76628 11.5617 9.80718L11.5844 9.83618L15.0164 14.7456V10.1051C15.0164 9.84864 15.1863 9.66666 15.4216 9.66666H16.0417C16.3022 9.66666 16.4365 9.88713 16.4365 10.1051V16.6654C16.4365 16.9155 16.2706 17.0958 16.0419 17.0958H15.1766C15.0751 17.0958 14.9979 17.0563 14.9613 17.0319C14.9191 17.0032 14.8845 16.9694 14.8603 16.9432C14.8389 16.9209 14.8172 16.8954 14.7996 16.8742C14.7836 16.8524 14.7703 16.8345 14.7638 16.8263L11.0055 11.51V16.6654C11.0055 16.9162 10.8378 17.0958 10.6098 17.0958Z" fill="#EC1846"/>
<path fill-rule="evenodd" clip-rule="evenodd" d="M16.4371 12.6071H21.1956C21.3832 12.6071 21.4568 12.7668 21.4568 12.9196V13.8479C21.4568 14.0006 21.3832 14.1609 21.1956 14.1609H16.4371V12.6071ZM16.4371 15.5443H21.4002C21.5734 15.5443 21.6612 15.6816 21.6612 15.8429V16.7984C21.6612 16.9591 21.5734 17.0974 21.4002 17.0974H15.9124L16.0419 17.0955C16.2704 17.0955 16.4371 16.9155 16.4371 16.6655V15.5443ZM16.4371 10.1045C16.4371 9.89143 16.3078 9.67464 16.0568 9.66672H21.4002C21.5879 9.66672 21.6612 9.82804 21.6612 9.97959V10.8884C21.6612 11.0435 21.5986 11.2205 21.4002 11.2205H16.4371V10.1045Z" fill="#044DA1"/>
<path fill-rule="evenodd" clip-rule="evenodd" d="M29.532 16.5601C29.0479 16.1429 28.8209 15.5399 28.8209 14.8061C28.8209 14.6017 28.9459 14.3764 29.2066 14.3764H29.8256C30.0531 14.3764 30.2206 14.5569 30.2206 14.8061C30.2288 14.9812 30.2575 15.1112 30.3005 15.2082C30.333 15.2812 30.3881 15.3444 30.4818 15.3935C30.5537 15.4322 30.6639 15.4737 30.8174 15.5047C30.9718 15.5379 31.1525 15.5515 31.36 15.5515H34.1811C34.3915 15.5515 34.5546 15.5347 34.6775 15.506C34.8063 15.4753 34.8972 15.4368 34.957 15.3964C35.0313 15.3479 35.0766 15.2882 35.1044 15.2118C35.1398 15.1079 35.1618 14.9728 35.1618 14.7957C35.1618 14.4943 35.0497 14.3207 34.8093 14.2151C34.7046 14.1639 34.5417 14.1176 34.3238 14.091C34.0926 14.063 31.8566 14.0824 31.7933 14.0824C30.9399 14.0824 30.2585 13.9762 29.7829 13.7299C29.0988 13.3791 28.7725 12.7212 28.7725 11.847C28.7725 11.6204 28.7926 11.4105 28.8299 11.2195H25.9171V16.6655C25.9171 16.9162 25.7494 17.0974 25.5214 17.0974H24.9018C24.6409 17.0974 24.5159 16.8694 24.5159 16.6655V11.2195H21.4182C21.6036 11.2086 21.661 11.0381 21.661 10.8884V9.97959C21.661 9.82747 21.5883 9.66672 21.3994 9.66672H34.1034C35.6275 9.66672 36.5149 10.4174 36.5149 11.9531C36.5149 12.1437 36.3972 12.3728 36.1386 12.3728H35.4988C35.2756 12.3728 35.1131 12.1944 35.1131 11.9545C35.1075 11.7871 35.0766 11.6579 35.0342 11.5607C34.9998 11.4789 34.943 11.4137 34.8525 11.3671C34.6936 11.2799 34.4139 11.2195 33.9853 11.2195H30.977C30.7869 11.2195 30.6439 11.2358 30.536 11.2625C30.4281 11.2929 30.3593 11.3273 30.3189 11.3566C30.268 11.393 30.182 11.5055 30.182 11.8573C30.182 12.0993 30.276 12.2602 30.5316 12.3718C30.776 12.4806 31.1894 12.5491 31.8019 12.5491C31.838 12.5491 32.446 12.5484 33.0855 12.5545C33.7064 12.5603 34.4111 12.5739 34.6037 12.6071C34.9498 12.6667 35.2568 12.7588 35.511 12.8805C36.2119 13.2567 36.5631 13.9293 36.5631 14.8171C36.5631 15.5906 36.3699 16.2287 35.9184 16.6368C35.7169 16.8098 35.5417 16.9788 35.2551 17.0514C34.9873 17.1117 34.5837 17.0974 34.2114 17.0974H31.1632C30.504 17.0974 29.9468 16.9328 29.532 16.5601Z" fill="#EC1846"/>
<path fill-rule="evenodd" clip-rule="evenodd" d="M5.93217 17.1079C4.38699 17.1079 3.15248 15.6348 3.35509 13.913C3.49141 12.7549 4.29363 11.7914 5.34076 11.5317C6.23621 11.3097 7.13152 11.6071 7.7491 12.2636C7.94714 12.4741 7.91329 12.8314 7.6836 13L7.65847 13.0185C7.48243 13.1477 7.25131 13.1166 7.09766 12.957C6.681 12.5247 6.0767 12.3397 5.4797 12.5153C4.83438 12.7052 4.34753 13.3146 4.2599 14.0348C4.12358 15.1563 4.92657 16.1173 5.93217 16.1173C6.42071 16.1173 6.88165 15.8854 7.19897 15.4948C7.33425 15.3282 7.56251 15.2961 7.73972 15.4065L7.76602 15.4229C8.00561 15.5721 8.06524 15.9251 7.88243 16.15C7.39389 16.7511 6.68425 17.1079 5.93217 17.1079Z" fill="#044DA1"/>
<path fill-rule="evenodd" clip-rule="evenodd" d="M7.59481 14.756H4.99572C4.7758 14.756 4.59741 14.5623 4.59741 14.3232V14.2668C4.59741 14.0278 4.7758 13.834 4.99572 13.834H7.59481C7.81473 13.834 7.99311 14.0278 7.99311 14.2668V14.3232C7.99311 14.5623 7.81473 14.756 7.59481 14.756Z" fill="#044DA1"/>
</svg>
