<svg width="40" height="40" viewBox="0 0 40 40" fill="none" xmlns="http://www.w3.org/2000/svg">
<path d="M38.3333 7.5H1.66667C0.746192 7.5 0 8.24619 0 9.16667V30.8333C0 31.7538 0.746192 32.5 1.66667 32.5H38.3333C39.2538 32.5 40 31.7538 40 30.8333V9.16667C40 8.24619 39.2538 7.5 38.3333 7.5Z" fill="#26337A"/>
<path fill-rule="evenodd" clip-rule="evenodd" d="M20.8333 15.8333L19.23 24.1667H16.6667L18.2702 15.8333H20.8333ZM24.0913 15.8333C24.8444 15.8333 25.449 16.01 25.8333 16.172L25.57 17.9221L25.3955 17.8299C25.0368 17.6658 24.5764 17.5087 23.9406 17.5196C23.1791 17.5196 22.8273 17.8789 22.8269 18.2144C22.8221 18.5933 23.2391 18.8412 23.9184 19.2156C25.0403 19.7915 25.5584 20.4889 25.5514 21.4091C25.5358 23.0843 24.2085 24.1667 22.1659 24.1667C21.2937 24.1564 20.4533 23.9612 20 23.7364L20.2719 21.9293L20.5219 22.0578C21.1613 22.3592 21.5748 22.4812 22.3531 22.4812C22.9121 22.4812 23.5115 22.2334 23.5167 21.6927C23.5197 21.3392 23.2652 21.0863 22.5077 20.6909C21.7706 20.3052 20.7929 19.6581 20.8051 18.4976C20.8164 16.9289 22.1693 15.8333 24.0913 15.8333ZM30.8099 15.8333L32.5 24.1667H30.5617C30.5617 24.1667 30.37 23.2083 30.3074 22.9173L29.907 22.9168C29.8592 22.9167 29.8084 22.9167 29.7554 22.9166L29.4131 22.916C29.2322 22.9157 29.0399 22.9153 28.8509 22.915L28.4815 22.9143C28.4221 22.9142 28.3641 22.9141 28.3081 22.914L28.0005 22.9135C27.9547 22.9134 27.9119 22.9133 27.8727 22.9133L27.6325 22.913C27.5513 23.1386 27.1935 24.1667 27.1935 24.1667H25L28.1014 16.5246C28.3207 15.9809 28.6954 15.8333 29.1959 15.8333H30.8099ZM17.5 15.8333L14.1528 24.1653L11.9033 24.1667L10 16.866C11.3499 17.5899 12.5567 19.0347 12.9444 20.3676L13.1672 21.5244L15.2476 15.8333H17.5ZM29.343 18.0808C29.2375 18.3934 29.0532 18.8984 29.0654 18.8764C29.0654 18.8764 28.886 19.3804 28.6899 19.9306L28.5912 20.2074C28.4433 20.622 28.3012 21.0197 28.2335 21.2072H29.9672L29.9389 21.0651C29.818 20.4593 29.4839 18.8 29.4839 18.8L29.343 18.0808Z" fill="#FFFFFE"/>
<path fill-rule="evenodd" clip-rule="evenodd" d="M11.1215 15.8333H8.35601L8.33325 15.9921C10.4851 16.6267 11.909 18.1586 12.4999 20L11.8989 16.4797C11.7953 15.9942 11.494 15.8503 11.1215 15.8333Z" fill="#EC982D"/>
</svg>
